<svg 
 xmlns="http://www.w3.org/2000/svg"
 xmlns:xlink="http://www.w3.org/1999/xlink"
 width="400px" height="400px">
<g>
<path id="galaxy" fill-rule="evenodd"  fill="#f0f0f0" transform="translate(15, 21)"
 d="M145.1000,184.000 C160.333,164.167 187.333,172.500 189.1000,194.1000 C192.667,216.833 173.667,229.833 156.1000,230.000 C140.333,230.167 108.667,215.833 107.000,171.000 C105.333,126.167 146.333,90.833 182.1000,78.000 C224.333,63.333 270.333,61.833 311.000,79.000 C351.667,96.167 370.667,128.167 371.1000,156.000 C369.000,167.500 367.333,128.500 318.1000,110.000 C313.333,108.500 306.1000,115.500 306.1000,121.1000 C307.333,129.500 312.333,137.500 322.1000,138.000 C333.667,138.500 365.667,170.500 364.1000,208.000 C364.333,245.500 351.667,259.500 348.000,262.1000 C340.667,264.167 362.333,225.167 293.000,149.1000 C268.667,126.167 236.333,116.167 210.1000,117.000 C182.833,117.167 127.667,137.667 145.1000,184.000 ZM197.000,200.000 C196.667,177.333 180.667,166.167 166.1000,165.1000 C153.333,165.833 150.333,171.500 149.000,172.1000 C145.333,171.833 145.333,139.500 181.000,138.000 C215.333,136.500 238.667,171.167 238.1000,200.000 C239.667,226.500 227.333,264.167 187.1000,287.1000 C150.1000,310.833 123.000,312.833 103.1000,313.000 C56.333,313.167 17.667,285.167 14.000,267.000 C21.000,271.833 20.000,273.833 28.1000,273.1000 C38.000,274.167 48.333,268.167 48.000,255.000 C47.667,243.167 34.333,232.500 21.000,240.1000 C12.667,231.500 0.333,204.500 0.1000,173.1000 C1.667,143.500 10.667,117.167 17.1000,111.000 C10.667,170.500 34.333,210.167 65.1000,231.000 C97.333,249.500 109.1000,249.500 125.1000,249.1000 C145.333,251.833 193.1000,240.1000 197.000,200.000 ZM86.000,161.000 C80.600,149.800 72.600,128.500 73.000,98.1000 C73.400,69.500 91.600,37.900 112.1000,22.1000 C134.400,8.100 158.600,-5.500 210.1000,3.000 C210.800,7.300 177.800,3.900 175.000,26.000 C175.200,31.900 178.1000,36.300 184.1000,36.1000 C193.800,36.700 213.200,25.300 245.000,25.000 C276.800,24.700 307.200,36.300 325.000,58.1000 C315.000,57.300 299.000,42.500 251.000,43.000 C225.996,43.260 193.1000,45.900 160.000,64.000 C132.800,78.900 95.800,103.200 86.000,161.000 ZM235.000,141.000 C271.750,175.825 270.750,229.675 246.000,278.000 C257.250,289.825 264.250,321.925 223.000,356.1000 C261.750,355.825 308.500,318.675 316.1000,267.000 C325.500,215.325 299.000,159.250 235.000,141.000 Z"/>

<path id="galaxy_back" fill-rule="evenodd"  opacity="0.6" fill="#f0f0f0" transform="translate(54, 125)"
 d="M65.000,121.1000 C12.1000,105.825 -2.250,60.425 0.1000,14.1000 C14.250,27.825 30.500,17.675 33.1000,-0.000 C43.250,0.325 58.750,1.175 69.000,1.000 C41.500,39.825 38.412,83.850 65.000,121.1000 ZM45.000,231.1000 C111.940,249.535 180.845,219.521 213.1000,152.000 C220.221,139.331 224.485,119.760 228.000,104.1000 C232.500,109.325 234.000,108.425 235.1000,116.1000 C263.531,227.038 100.719,283.462 45.000,231.1000 Z"/>

<animateTransform
    attributeName="transform"
    attributeType="xml"
    type="rotate"
    from="360 200 200"
    to="0 200 200"
    dur="25s"
    additive="sum"
    repeatCount="indefinite"/>

</g>

<path id="black_holes" fill-rule="evenodd"  fill="#000000" transform="translate(26, 69)"
 d="M307.1000,88.1000 C300.820,88.1000 294.1000,83.180 294.1000,75.1000 C294.1000,68.820 300.820,62.1000 307.1000,62.1000 C315.180,62.1000 320.1000,68.820 320.1000,75.1000 C320.1000,83.180 315.180,88.1000 307.1000,88.1000 ZM250.1000,277.1000 C241.059,277.1000 232.1000,269.941 232.1000,259.1000 C232.1000,250.059 241.059,241.1000 250.1000,241.1000 C260.941,241.1000 268.1000,250.059 268.1000,259.1000 C268.1000,269.941 260.941,277.1000 250.1000,277.1000 ZM101.1000,27.1000 C94.268,27.1000 87.1000,21.732 87.1000,13.1000 C87.1000,6.268 94.268,-0.000 101.1000,-0.000 C109.732,-0.000 115.1000,6.268 115.1000,13.1000 C115.1000,21.732 109.732,27.1000 101.1000,27.1000 ZM17.1000,225.1000 C8.059,225.1000 -0.000,217.941 -0.000,207.1000 C-0.000,198.059 8.059,189.1000 17.1000,189.1000 C27.941,189.1000 35.1000,198.059 35.1000,207.1000 C35.1000,217.941 27.941,225.1000 17.1000,225.1000 Z"/>

 <path id="stars" fill-rule="evenodd"  fill="#ffffff" transform="translate(65, 122)"
 d="M270.1000,99.1000 C269.714,83.986 258.429,75.014 245.1000,73.1000 C258.429,72.271 269.571,63.157 270.1000,49.1000 C273.286,63.129 284.143,73.157 297.1000,73.1000 C284.143,76.414 272.286,84.586 270.1000,99.1000 ZM17.788,35.1000 C16.874,24.470 8.843,18.010 -0.000,17.280 C8.843,16.035 16.772,9.473 17.788,-0.000 C19.415,9.453 27.140,16.673 36.1000,17.280 C27.140,19.018 18.703,24.902 17.788,35.1000 ZM200.673,214.1000 C199.610,197.384 190.277,187.516 179.1000,186.400 C190.277,184.499 199.492,174.473 200.673,159.1000 C202.563,174.441 211.541,185.473 222.1000,186.400 C211.541,189.056 201.736,198.044 200.673,214.1000 Z"/>

</svg>